<?xml version="1.0" encoding="UTF-8" standalone="no"?>
<svg
   xmlns:dc="http://purl.org/dc/elements/1.1/"
   xmlns:cc="http://creativecommons.org/ns#"
   xmlns:rdf="http://www.w3.org/1999/02/22-rdf-syntax-ns#"
   xmlns:svg="http://www.w3.org/2000/svg"
   xmlns="http://www.w3.org/2000/svg"
   xmlns:sodipodi="http://sodipodi.sourceforge.net/DTD/sodipodi-0.dtd"
   xmlns:inkscape="http://www.inkscape.org/namespaces/inkscape"
   width="160"
   height="160"
   viewBox="0 0 42.333333 42.333335"
   version="1.1"
   id="svg8"
   inkscape:version="1.0.2-2 (e86c870879, 2021-01-15)"
   sodipodi:docname="logo.svg">
  <defs
     id="defs2" />
  <sodipodi:namedview
     id="base"
     pagecolor="#ffffff"
     bordercolor="#666666"
     borderopacity="1.0"
     inkscape:pageopacity="0.0"
     inkscape:pageshadow="2"
     inkscape:zoom="1.979899"
     inkscape:cx="213.14751"
     inkscape:cy="151.73746"
     inkscape:document-units="mm"
     inkscape:current-layer="layer1"
     inkscape:document-rotation="0"
     showgrid="false"
     inkscape:window-width="1920"
     inkscape:window-height="1017"
     inkscape:window-x="-8"
     inkscape:window-y="-8"
     inkscape:window-maximized="1"
     units="px" />
  <metadata
     id="metadata5">
    <rdf:RDF>
      <cc:Work
         rdf:about="">
        <dc:format>image/svg+xml</dc:format>
        <dc:type
           rdf:resource="http://purl.org/dc/dcmitype/StillImage" />
        <dc:title></dc:title>
      </cc:Work>
    </rdf:RDF>
  </metadata>
  <g
     inkscape:label="Layer 1"
     inkscape:groupmode="layer"
     id="layer1">
    <path
       style="fill:#E8EAE1;stroke-width:0.264583"
       id="path86"
       d="m 5.8438449,10.831039 c 1.727319,0.003 3.451164,-0.11275 5.1764801,-0.18123 2.017204,-0.0791 4.036062,-0.0915 6.054501,-0.105 2.17916,-0.0217 4.35842,-0.017 6.53761,-0.005 1.92436,-0.0314 3.84566,0.0777 5.76762,0.15236 1.37977,0.0279 2.75628,0.0978 4.12626,0.26281 0,0 3.16378,-2.2383022 3.16378,-2.2383022 v 0 c -1.37707,-0.182592 -2.76357,-0.254916 -4.15252,-0.285422 -1.9214,-0.07517 -3.84201,-0.208621 -5.76575,-0.172199 -2.18065,0.01072 -4.36131,0.01278 -6.54197,0.0052 -2.02368,0.0087 -4.04734,0.0366 -6.070094,0.100462 -1.697762,0.06415 -3.396043,0.17865 -5.0953181,0.140761 0,0 -3.200599,2.3253702 -3.200599,2.3253702 z" />
    <path
       style="fill:#E8EAE1;stroke-width:0.264583"
       id="path96"
       d="m 13.844757,19.944269 c 0.100655,1.66127 0.193921,3.32272 0.250888,4.98687 0.158626,2.77597 0.254294,5.55472 0.30693,8.33457 0.03641,2.24024 0.02909,4.48085 0.01188,6.72122 0,0 3.470861,-1.76917 3.470861,-1.76917 v 0 c -0.0242,-2.22972 -0.0514,-4.45942 -0.0904,-6.68895 -0.0568,-2.78581 -0.15781,-5.56955 -0.27695,-8.3534 -0.0357,-1.67799 -0.1284,-3.35556 -0.13648,-5.0332 0,0 -3.536742,1.80206 -3.536742,1.80206 z" />
    <path
       style="fill:#E8EAE1;stroke-width:0.264583"
       id="path100"
       d="m 22.939776,21.404499 c 0.0454,2.44837 0.16382,4.89447 0.23971,7.34209 0.0838,3.31478 0.0902,6.63069 0.091,9.94631 0.003,1.06463 -0.0137,2.12903 -0.0411,3.19324 0,0 3.48004,-1.77356 3.48004,-1.77356 v 0 c -0.0296,-1.04878 -0.0489,-2.09777 -0.0518,-3.14701 -0.0226,-3.31448 -0.0535,-6.62899 -0.11449,-9.94301 -0.0422,-2.47033 -0.1618,-4.9417 -0.0823,-7.41212 0,0 -3.52103,1.79406 -3.52103,1.79406 z" />
    <path
       style="fill:#E8EAE1;stroke-width:0.264583"
       id="path106"
       d="m 28.546546,2.3354548 c 0.0418,1.774602 0.0466,3.550107 0.0493,5.325165 0.0541,0.817877 0.0967,1.636439 0.14088,2.4548992 0,0 3.48436,-1.8088132 3.48436,-1.8088132 v 0 c -0.0787,-0.797375 -0.1488,-1.595586 -0.19104,-2.395897 0.003,-1.791811 0.008,-3.584046 0.0493,-5.37541305 0,0 -3.53282,1.80005905 -3.53282,1.80005905 z" />
    <path
       style="fill:#E8EAE1;stroke-width:0.264583"
       id="path140"
       d="m 5.5327319,17.749859 c 0.972275,-0.2209 1.828332,-0.70233 2.678589,-1.20791 1.5237726,-0.90607 3.0513651,-1.80654 4.5520521,-2.75035 0.931908,-0.5861 1.836335,-1.35799 2.689011,-2.04471 2.285962,-1.9281802 4.092192,-4.3416502 5.610472,-6.9011842 0.60912,-1.034593 0.95245,-2.202125 1.60808,-3.209047 0.15991,-0.296767 0.35703,-0.565615 0.59372,-0.80504805 0.0474,-0.04794 0.20738,-0.170026 0.14843,-0.137337 -3.35161,1.85844705 -2.76449,0.78573605 -3.40545,1.98314005 0.0233,1.09075 0.11756,2.114658 0.43459,3.162702 0.69088,1.660377 1.93459,2.983502 3.20036,4.2254642 1.58601,1.57934 3.37273,2.90873 5.3232,3.99846 1.69889,1.05518 3.5503,1.74926 5.44696,2.34782 0.8304,0.2818 0.41523,0.15075 1.24528,0.39388 0,0 3.23391,-2.21721 3.23391,-2.21721 v 0 c -0.83178,-0.22228 -0.41093,-0.0988 -1.26183,-0.37294 -0.89069,-0.2573 -1.79425,-0.5138 -2.65636,-0.85773 -0.76786,-0.30633 -1.13104,-0.52204 -1.85971,-0.9127 -0.30493,-0.16348 -0.60907,-0.32842 -0.9136,-0.49264 -1.94097,-1.03553 -3.70887,-2.3486102 -5.26241,-3.9109102 -1.21661,-1.191384 -2.41128,-2.476587 -3.05687,-4.07821 -0.30597,-1.097503 -0.31263,-2.067343 -0.38185,-3.18853405 -0.0533,-0.133167 -0.0261,-0.45127 -0.15981,-0.399507 -2.49584,0.96579205 -3.29726,1.13363905 -4.28511,2.86435805 -0.56715,1.028446 -0.93089,2.155803 -1.5223,3.172976 -1.49571,2.520857 -3.288594,4.8756572 -5.575819,6.7356372 -0.463354,0.36239 -0.917729,0.73657 -1.390065,1.08718 -0.436976,0.32436 -1.8744721,1.02193 -1.3369361,0.93702 0.7273736,-0.1149 1.2797351,-0.73397 1.9521471,-1.0342 0.662226,-0.29568 -1.2435905,0.75892 -1.9156511,1.03151 -0.186084,0.0755 -0.381748,0.12476 -0.572621,0.18713 0,0 -3.160409,2.39289 -3.160409,2.39289 z" />
    <path
       style="fill:#E8EAE1;stroke-width:0.264583"
       id="path148"
       d="m 7.9648299,10.857109 c 0.0443,1.60176 0.03825,3.20446 0.04121,4.80669 0.07514,2.4216 0.224388,4.83937 0.35837,7.25811 0.113144,1.96811 0.148606,3.93926 0.157896,5.9102 -0.0016,0.20019 -0.0033,0.40037 -0.0049,0.60056 0,0 3.4971291,-1.78628 3.4971291,-1.78628 v 0 c -0.0056,-0.19694 -0.01119,-0.39388 -0.0168,-0.59082 -0.04231,-1.96782 -0.100539,-3.93556 -0.216016,-5.90064 -0.154909,-2.41504 -0.299186,-4.83036 -0.321361,-7.25118 0.003,-1.61625 -0.0027,-3.23292 0.04121,-4.8487002 0,0 -3.5367391,1.8020602 -3.5367381,1.8020602 z" />
    <path
       style="fill:#E8EAE1;stroke-width:0.264583"
       id="path154"
       d="m 32.385776,10.474989 c -0.45227,1.4154 -0.8842,2.84051 -1.19907,4.2934 -0.36376,1.7048 -0.41783,3.44828 -0.45773,5.18411 0.0392,1.71009 0.21147,3.42843 0.59352,5.09709 0.27125,1.02152 0.5774,2.05491 1.05884,2.99952 0.12496,0.28801 0.35414,0.59975 0.33548,0.93412 -0.003,0.0544 -0.10101,0.1825 -0.0544,0.1542 3.58853,-2.18061 4.26966,-2.30901 2.70533,-1.90844 -2.03061,-0.0533 -4.0599,-0.13837 -6.09166,-0.17178 -2.79826,-0.0339 -5.59667,-0.054 -8.39497,-0.0844 -1.11485,0.01 -2.23295,-0.077 -3.3445,0.0315 -0.85404,0.0689 -1.645496,0.42724 -2.4531,0.68877 -0.16076,0.0638 -0.321521,0.12765 -0.482279,0.19147 0,0 -3.087392,2.44509 -3.087392,2.44509 v 0 c 0.152173,-0.0741 0.304348,-0.14812 0.456523,-0.22217 0.443373,-0.14372 0.888026,-0.27447 1.325237,-0.43604 0.226245,-0.0836 0.440772,-0.20312 0.674992,-0.26072 0.127987,-0.0315 0.261895,-0.0299 0.39284,-0.0449 1.12427,-0.14945 2.254189,-0.10644 3.387199,-0.11968 2.81334,-0.0171 5.62693,-0.0167 8.43983,0.0431 2.00124,0.0509 4.00258,0.11694 5.99846,0.27942 0.16357,0.0163 0.34636,0.1276 0.49073,0.049 0.77407,-0.42153 3.77565,-0.96444 3.53918,-2.50683 -0.0561,-0.36569 -0.24618,-0.69297 -0.40581,-1.01954 -0.46742,-0.9123 -0.77834,-1.9071 -1.0521,-2.89173 -0.37122,-1.63845 -0.55284,-3.32236 -0.56559,-5.00218 0.0472,-1.71405 0.1244,-3.43501 0.49287,-5.11589 0.33984,-1.43833 0.73796,-2.88058 1.31427,-4.2427312 0,0 -3.61668,1.6363012 -3.61668,1.6363012 z" />
  </g>
</svg>
